<svg xmlns="http://www.w3.org/2000/svg" width="46" height="46" viewBox="0 0 46 46" fill="none">
  <path fill-rule="evenodd" clip-rule="evenodd" d="M26.0382 3.74684C34.3686 5.05093 40.9489 11.6315 42.2531 19.9618H35.1522C34.0367 15.4863 30.5139 11.9633 26.0382 10.848V3.74684ZM24.6007 10.9485C24.6007 11.8325 23.8841 12.5492 23 12.5492C22.1159 12.5492 21.3993 11.8325 21.3993 10.9485V3.03825C21.3993 2.15418 22.1159 1.4375 23 1.4375C23.884 1.4375 24.6007 2.15418 24.6007 3.03825V10.9485ZM35.0515 24.6007C34.1675 24.6007 33.4508 23.884 33.4508 22.9999C33.4508 22.1158 34.1675 21.3992 35.0515 21.3992H42.9618C43.8458 21.3992 44.5625 22.1158 44.5625 22.9999C44.5625 23.8839 43.8458 24.6007 42.9618 24.6007H35.0515ZM10.9484 21.3993C11.8324 21.3993 12.5491 22.1159 12.5491 23C12.5491 23.8841 11.8324 24.6007 10.9484 24.6007H3.03825C2.15418 24.6007 1.4375 23.884 1.4375 23C1.4375 22.116 2.15418 21.3993 3.03825 21.3993H10.9484ZM21.3993 35.0515C21.3993 34.1675 22.1159 33.4508 23 33.4508C23.8841 33.4508 24.6007 34.1675 24.6007 35.0515V42.9618C24.6007 43.8458 23.8841 44.5625 23 44.5625C22.116 44.5625 21.3993 43.8458 21.3993 42.9618V35.0515ZM35.1085 27.7762C31.0456 27.7762 27.7519 31.0699 27.7519 35.1328C27.7519 39.1957 31.0456 42.4894 35.1085 42.4894C39.1714 42.4894 42.4651 39.1957 42.4651 35.1328C42.4651 31.0699 39.1715 27.7762 35.1085 27.7762ZM39.2649 33.7039C37.8143 35.1678 36.3736 36.6414 34.9164 38.0987C34.4904 38.5247 33.7994 38.5247 33.3734 38.0987L30.9558 35.6811C30.5297 35.255 30.5297 34.5641 30.9558 34.138C31.3817 33.712 32.0728 33.712 32.4988 34.138L34.1425 35.7817L37.7196 32.169C38.143 31.7413 38.8338 31.7402 39.2602 32.1642C39.6865 32.5882 39.6878 33.277 39.2649 33.7039ZM23 15.5502C18.8856 15.5502 15.5502 18.8855 15.5502 23C15.5502 27.1144 18.8856 30.4498 23 30.4498C27.1144 30.4498 30.4498 27.1144 30.4498 23C30.4498 18.8855 27.1144 15.5502 23 15.5502ZM23.7188 27.3194V27.7142C23.7188 28.1111 23.3969 28.4329 23 28.4329C22.6031 28.4329 22.2812 28.1111 22.2812 27.7142V27.3054C21.1405 27.0794 20.2031 26.3354 19.9138 25.1752C19.8192 24.7907 20.0543 24.4023 20.4388 24.3077C20.8234 24.2131 21.2118 24.4482 21.3064 24.8327C21.5303 25.7313 22.5183 26.0236 23.347 25.9231C23.8835 25.858 24.6893 25.5971 24.6735 24.9318C24.6535 24.0427 23.5966 23.7964 22.8917 23.6807C21.5463 23.4597 20.2175 22.8255 20.1426 21.2814C20.078 19.9515 21.0449 18.9841 22.2812 18.7051V18.2857C22.2812 17.8888 22.6031 17.567 23 17.567C23.3969 17.567 23.7188 17.8888 23.7188 18.2857V18.6946C23.7561 18.7026 23.7933 18.7113 23.8304 18.7207C24.6788 18.9358 25.4506 19.4935 25.8559 20.4589C26.0093 20.8248 25.8372 21.2459 25.4712 21.3994C25.1053 21.5529 24.6842 21.3807 24.5307 21.0148C24.2115 20.2545 23.4147 19.9363 22.6376 20.0928C22.0757 20.2059 21.5438 20.582 21.5744 21.214C21.6102 21.9521 22.5311 22.1687 23.1219 22.2656C24.5151 22.4944 25.8977 23.076 26.09 24.6597C26.0981 24.7264 26.1031 24.8063 26.1054 24.8981C26.1388 26.2995 24.9759 27.1025 23.7188 27.3194ZM42.2532 26.0382C42.0883 27.0914 41.8388 28.1165 41.5123 29.1066C39.8362 27.3262 37.5184 26.3287 35.0726 26.3391C35.1002 26.2392 35.1269 26.1391 35.1521 26.0382H42.2532ZM29.0697 41.5247C28.091 41.8452 27.0782 42.0903 26.0382 42.2531V35.1522C26.131 35.1291 26.2232 35.1045 26.3151 35.0793C26.3012 37.5268 27.2909 39.8435 29.0697 41.5247ZM19.9618 42.2531C11.6315 40.9489 5.05102 34.3686 3.74684 26.0382H10.8479C11.9633 30.5139 15.4863 34.0367 19.9618 35.1522V42.2531ZM3.74693 19.9618C5.05111 11.6314 11.6314 5.05093 19.9618 3.74675V10.8478C15.4861 11.9632 11.9633 15.4862 10.8478 19.9617L3.74693 19.9618Z" fill="white" style="fill:white;fill-opacity:1;"/>
</svg>