<svg width="20" height="20" viewBox="0 0 20 20" fill="none" xmlns="http://www.w3.org/2000/svg">
<g opacity="0.5">
<path d="M19 10.667H18.6667V3.66699C18.6667 2.01266 17.3207 0.666992 15.6667 0.666992C14.1873 0.666992 13.1293 1.76234 13.0117 3.36633C12.2463 3.51668 11.6667 4.19133 11.6667 5.00031C11.6667 5.18465 11.816 5.33363 12 5.33363H14.6667C14.8507 5.33363 15 5.18465 15 5.00031C15 4.20098 14.434 3.53266 13.682 3.37164C13.779 2.31496 14.4027 1.33363 15.6666 1.33363C16.9533 1.33363 18 2.38062 18 3.66695V10.667H7.96633C7.81133 9.9073 7.13801 9.33363 6.33332 9.33363H6.32633C6.01332 8.91762 5.52301 8.66695 5 8.66695C4.36633 8.66695 3.80133 9.03297 3.52266 9.57496C3.26633 9.41863 2.97133 9.33363 2.66664 9.33363C1.86199 9.33363 1.18863 9.9073 1.03363 10.667H1C0.448672 10.667 0 11.1156 0 11.667C0 12.2183 0.448672 12.667 1 12.667H1.40633L2.29801 16.2326C2.55801 17.2733 3.48902 18.0003 4.56168 18.0003H4.79402L4.36836 18.8513C4.28602 19.0159 4.35301 19.2159 4.5177 19.2986C4.56535 19.3223 4.61637 19.3336 4.66637 19.3336C4.78871 19.3336 4.90637 19.2663 4.96504 19.1493L5.53937 18.0003H14.794L15.3684 19.1493C15.427 19.2663 15.5447 19.3336 15.667 19.3336C15.717 19.3336 15.768 19.3223 15.8157 19.2986C15.9804 19.216 16.0474 19.016 15.965 18.8513L15.5354 17.9923C16.5661 17.9493 17.45 17.2416 17.7021 16.2327L18.5938 12.667H19C19.5513 12.667 20 12.2183 20 11.667C20 11.1157 19.5513 10.667 19 10.667ZM19 12.0003H18.3333H1.66668H1C0.816328 12.0003 0.66668 11.851 0.66668 11.667C0.66668 11.483 0.816328 11.3337 1 11.3337H1.33332H7.66664H19C19.1837 11.3337 19.3333 11.483 19.3333 11.667C19.3333 11.851 19.1837 12.0003 19 12.0003Z" fill="#0F0F0F" style="fill:#0F0F0F;fill:color(display-p3 0.0596 0.0596 0.0596);fill-opacity:1;"/>
<path d="M11.9974 6.83332C12.1814 6.83332 12.3307 6.68434 12.3307 6.5V6.33332C12.3307 6.14898 12.1814 6 11.9974 6C11.8134 6 11.6641 6.14898 11.6641 6.33332V6.5C11.6641 6.68434 11.8134 6.83332 11.9974 6.83332Z" fill="#0F0F0F" style="fill:#0F0F0F;fill:color(display-p3 0.0596 0.0596 0.0596);fill-opacity:1;"/>
<path d="M11.9974 8.35723C12.1814 8.35723 12.3307 8.20824 12.3307 8.02391V7.64289C12.3307 7.45891 12.1814 7.30957 11.9974 7.30957C11.8134 7.30957 11.6641 7.45891 11.6641 7.64289V8.02391C11.6641 8.2082 11.8134 8.35723 11.9974 8.35723Z" fill="#0F0F0F" style="fill:#0F0F0F;fill:color(display-p3 0.0596 0.0596 0.0596);fill-opacity:1;"/>
<path d="M11.9974 9.6673C12.1814 9.6673 12.3307 9.51832 12.3307 9.33398V9.1673C12.3307 8.98297 12.1814 8.83398 11.9974 8.83398C11.8134 8.83398 11.6641 8.98297 11.6641 9.1673V9.33398C11.6641 9.51828 11.8134 9.6673 11.9974 9.6673Z" fill="#0F0F0F" style="fill:#0F0F0F;fill:color(display-p3 0.0596 0.0596 0.0596);fill-opacity:1;"/>
<path d="M13.3333 6.83332C13.5173 6.83332 13.6666 6.68434 13.6666 6.5V6.33332C13.6666 6.14898 13.5173 6 13.3333 6C13.1493 6 13 6.14898 13 6.33332V6.5C13 6.68434 13.1493 6.83332 13.3333 6.83332Z" fill="#0F0F0F" style="fill:#0F0F0F;fill:color(display-p3 0.0596 0.0596 0.0596);fill-opacity:1;"/>
<path d="M13 8.02403C13 8.20836 13.1493 8.35735 13.3333 8.35735C13.5173 8.35735 13.6666 8.20836 13.6666 8.02403V7.64301C13.6666 7.45903 13.5173 7.30969 13.3333 7.30969C13.1493 7.30969 13 7.45903 13 7.64301V8.02403Z" fill="#0F0F0F" style="fill:#0F0F0F;fill:color(display-p3 0.0596 0.0596 0.0596);fill-opacity:1;"/>
<path d="M13 9.33398C13 9.51832 13.1493 9.6673 13.3333 9.6673C13.5173 9.6673 13.6666 9.51832 13.6666 9.33398V9.1673C13.6666 8.98297 13.5173 8.83398 13.3333 8.83398C13.1493 8.83398 13 8.98297 13 9.1673V9.33398Z" fill="#0F0F0F" style="fill:#0F0F0F;fill:color(display-p3 0.0596 0.0596 0.0596);fill-opacity:1;"/>
<path d="M14.6693 6.83332C14.8532 6.83332 15.0026 6.68434 15.0026 6.5V6.33332C15.0026 6.14898 14.8532 6 14.6693 6C14.4853 6 14.3359 6.14898 14.3359 6.33332V6.5C14.3359 6.68434 14.4852 6.83332 14.6693 6.83332Z" fill="#0F0F0F" style="fill:#0F0F0F;fill:color(display-p3 0.0596 0.0596 0.0596);fill-opacity:1;"/>
<path d="M14.3359 8.02403C14.3359 8.20836 14.4853 8.35735 14.6693 8.35735C14.8532 8.35735 15.0026 8.20836 15.0026 8.02403V7.64301C15.0026 7.45903 14.8532 7.30969 14.6693 7.30969C14.4853 7.30969 14.3359 7.45903 14.3359 7.64301V8.02403Z" fill="#0F0F0F" style="fill:#0F0F0F;fill:color(display-p3 0.0596 0.0596 0.0596);fill-opacity:1;"/>
<path d="M14.3359 9.33398C14.3359 9.51832 14.4853 9.6673 14.6693 9.6673C14.8532 9.6673 15.0026 9.51832 15.0026 9.33398V9.1673C15.0026 8.98297 14.8532 8.83398 14.6693 8.83398C14.4853 8.83398 14.3359 8.98297 14.3359 9.1673V9.33398Z" fill="#0F0F0F" style="fill:#0F0F0F;fill:color(display-p3 0.0596 0.0596 0.0596);fill-opacity:1;"/>
</g>
</svg>
