<svg width="116" height="25" viewBox="0 0 116 25" fill="none" xmlns="http://www.w3.org/2000/svg">
<path d="M16.2221 11.36C18.3341 12.8 18.9101 14.72 18.9101 16.8C18.9101 21.504 15.6141 24.224 10.0781 24.224H-0.00187492V0.383997H10.0781C15.0061 0.383997 17.9181 2.976 17.9181 7.36C17.9181 8.832 17.4061 10.208 16.2221 11.36ZM4.95813 4.544V9.344H10.4301C11.9661 9.344 12.9581 8.384 12.9581 6.944C12.9581 5.504 11.9661 4.544 10.4301 4.544H4.95813ZM10.6541 19.904C12.6381 19.904 13.9501 18.656 13.9501 16.8C13.9501 14.912 12.6381 13.664 10.6541 13.664H4.95813V19.904H10.6541ZM33.0114 24.608C26.1634 24.608 20.9794 19.36 20.9794 12.288C20.9794 5.184 26.0994 -1.90735e-06 33.0114 -1.90735e-06C38.1634 -1.90735e-06 41.9714 2.848 43.2194 6.368L38.8354 8.48C38.0034 6.176 35.8914 4.48 33.0114 4.48C28.7874 4.48 25.9394 7.648 25.9394 12.288C25.9394 16.96 28.7874 20.128 33.0114 20.128C35.8914 20.128 38.0034 18.432 38.8354 16.128L43.2194 18.24C41.9714 21.76 38.1634 24.608 33.0114 24.608Z" fill="#E3A82A" style="fill:#E3A82A;fill:color(display-p3 0.8902 0.6588 0.1647);fill-opacity:1;"/>
<path d="M57.3239 24.608C50.4759 24.608 45.2919 19.36 45.2919 12.288C45.2919 5.184 50.4119 -1.90735e-06 57.3239 -1.90735e-06C62.4759 -1.90735e-06 66.2839 2.848 67.5319 6.368L63.1479 8.48C62.3159 6.176 60.2039 4.48 57.3239 4.48C53.0999 4.48 50.2519 7.648 50.2519 12.288C50.2519 16.96 53.0999 20.128 57.3239 20.128C60.2039 20.128 62.3159 18.432 63.1479 16.128L67.5319 18.24C66.2839 21.76 62.4759 24.608 57.3239 24.608ZM70.0844 24.224V0.383997H74.8844V24.224H70.0844ZM88.9644 6.752H93.7644V24.224H89.2844V22.112C88.3884 23.744 86.6604 24.608 84.4844 24.608C80.4844 24.608 77.7644 21.664 77.7644 17.376V6.752H82.5644V16.96C82.5644 18.976 83.8764 20.288 85.7644 20.288C87.6524 20.288 88.9644 18.976 88.9644 16.96V6.752ZM106.783 6.368C111.743 6.368 115.647 10.368 115.647 15.488C115.647 20.576 111.839 24.608 106.751 24.608C104.607 24.608 102.687 23.904 101.439 22.56V24.224H96.9594V0.383997H101.759V8.224C102.943 7.04 104.703 6.368 106.783 6.368ZM106.175 20.288C108.799 20.288 110.687 18.304 110.687 15.488C110.687 12.704 108.799 10.688 106.175 10.688C103.583 10.688 101.759 12.672 101.759 15.488C101.759 18.336 103.583 20.288 106.175 20.288Z" fill="#305487" style="fill:#305487;fill:color(display-p3 0.1882 0.3294 0.5294);fill-opacity:1;"/>
</svg>
