<svg width="20" height="20" viewBox="0 0 20 20" fill="none" xmlns="http://www.w3.org/2000/svg">
<g opacity="0.5">
<path d="M2.71094 4.80247V9.79622H4.18187V7.86278C4.18187 7.22653 4.69937 6.70934 5.33531 6.70934H8.39469C9.03094 6.70934 9.54844 7.22684 9.54844 7.86278V9.79622H10.4484V7.86278C10.4484 7.22653 10.9659 6.70934 11.6022 6.70934H14.6616C15.2978 6.70934 15.815 7.22684 15.815 7.86278V9.79622H17.2859V4.80247C17.2859 4.4959 17.0366 4.24622 16.7297 4.24622H13.6547C13.5391 4.24622 13.4328 4.18215 13.3784 4.07997C12.8913 3.16059 11.5328 2.54309 9.99844 2.54309C8.46406 2.54309 7.10563 3.1609 6.61844 4.07997C6.56406 4.18215 6.45781 4.24622 6.34219 4.24622H3.26719C2.96062 4.24622 2.71094 4.49559 2.71094 4.80247Z" fill="#0F0F0F" style="fill:#0F0F0F;fill:color(display-p3 0.0596 0.0596 0.0596);fill-opacity:1;"/>
<path d="M11.603 7.33398C11.3114 7.33398 11.0742 7.57117 11.0742 7.86242V9.79586H15.1908V7.86242C15.1908 7.57086 14.9536 7.33398 14.6623 7.33398H11.603Z" fill="#0F0F0F" style="fill:#0F0F0F;fill:color(display-p3 0.0596 0.0596 0.0596);fill-opacity:1;"/>
<path d="M17.6003 10.4219H2.39969C1.76562 10.4219 1.25 10.9375 1.25 11.5716V15.9344H18.75V11.5716C18.75 10.9375 18.2344 10.4219 17.6003 10.4219Z" fill="#0F0F0F" style="fill:#0F0F0F;fill:color(display-p3 0.0596 0.0596 0.0596);fill-opacity:1;"/>
<path d="M5.33703 7.33398C5.04547 7.33398 4.80859 7.57117 4.80859 7.86242V9.79586H8.92516V7.86242C8.92516 7.57086 8.68797 7.33398 8.39641 7.33398H5.33703Z" fill="#0F0F0F" style="fill:#0F0F0F;fill:color(display-p3 0.0596 0.0596 0.0596);fill-opacity:1;"/>
<path d="M1.88672 16.5596H3.55734V17.4571H1.88672V16.5596Z" fill="#0F0F0F" style="fill:#0F0F0F;fill:color(display-p3 0.0596 0.0596 0.0596);fill-opacity:1;"/>
<path d="M16.4414 16.5596H18.112V17.4571H16.4414V16.5596Z" fill="#0F0F0F" style="fill:#0F0F0F;fill:color(display-p3 0.0596 0.0596 0.0596);fill-opacity:1;"/>
</g>
</svg>
