<svg width="32" height="32" viewBox="0 0 32 32" fill="none" xmlns="http://www.w3.org/2000/svg">
<path d="M16.001 17.8666L9.46771 24.3999C9.22326 24.6444 8.91215 24.7666 8.53437 24.7666C8.1566 24.7666 7.84549 24.6444 7.60104 24.3999C7.3566 24.1555 7.23438 23.8444 7.23438 23.4666C7.23438 23.0888 7.3566 22.7777 7.60104 22.5333L14.1344 15.9999L7.60104 9.46661C7.3566 9.22216 7.23438 8.91105 7.23438 8.53328C7.23438 8.1555 7.3566 7.84439 7.60104 7.59994C7.84549 7.3555 8.1566 7.23328 8.53437 7.23328C8.91215 7.23328 9.22326 7.3555 9.46771 7.59994L16.001 14.1333L22.5344 7.59994C22.7788 7.3555 23.0899 7.23328 23.4677 7.23328C23.8455 7.23328 24.1566 7.3555 24.401 7.59994C24.6455 7.84439 24.7677 8.1555 24.7677 8.53328C24.7677 8.91105 24.6455 9.22216 24.401 9.46661L17.8677 15.9999L24.401 22.5333C24.6455 22.7777 24.7677 23.0888 24.7677 23.4666C24.7677 23.8444 24.6455 24.1555 24.401 24.3999C24.1566 24.6444 23.8455 24.7666 23.4677 24.7666C23.0899 24.7666 22.7788 24.6444 22.5344 24.3999L16.001 17.8666Z" fill="#305487" style="fill:#305487;fill:color(display-p3 0.1882 0.3294 0.5294);fill-opacity:1;"/>
</svg>
