<svg width="36" height="36" viewBox="0 0 36 36" fill="none" xmlns="http://www.w3.org/2000/svg">
<path d="M4.5 0C3.6057 0.00261181 2.74877 0.35903 2.1164 0.9914C1.48403 1.62377 1.12761 2.4807 1.125 3.375V32.625C1.12761 33.5193 1.48403 34.3762 2.1164 35.0086C2.74877 35.641 3.6057 35.9974 4.5 36H16.875V0H4.5ZM5.625 31.5H4.5C4.20163 31.5 3.91548 31.3815 3.7045 31.1705C3.49353 30.9595 3.375 30.6734 3.375 30.375C3.375 30.0766 3.49353 29.7905 3.7045 29.5795C3.91548 29.3685 4.20163 29.25 4.5 29.25H5.625C5.92337 29.25 6.20952 29.3685 6.4205 29.5795C6.63147 29.7905 6.75 30.0766 6.75 30.375C6.75 30.6734 6.63147 30.9595 6.4205 31.1705C6.20952 31.3815 5.92337 31.5 5.625 31.5ZM5.625 27H4.5C4.20163 27 3.91548 26.8815 3.7045 26.6705C3.49353 26.4595 3.375 26.1734 3.375 25.875C3.375 25.5766 3.49353 25.2905 3.7045 25.0795C3.91548 24.8685 4.20163 24.75 4.5 24.75H5.625C5.92337 24.75 6.20952 24.8685 6.4205 25.0795C6.63147 25.2905 6.75 25.5766 6.75 25.875C6.75 26.1734 6.63147 26.4595 6.4205 26.6705C6.20952 26.8815 5.92337 27 5.625 27ZM5.625 22.5H4.5C4.20163 22.5 3.91548 22.3815 3.7045 22.1705C3.49353 21.9595 3.375 21.6734 3.375 21.375C3.375 21.0766 3.49353 20.7905 3.7045 20.5795C3.91548 20.3685 4.20163 20.25 4.5 20.25H5.625C5.92337 20.25 6.20952 20.3685 6.4205 20.5795C6.63147 20.7905 6.75 21.0766 6.75 21.375C6.75 21.6734 6.63147 21.9595 6.4205 22.1705C6.20952 22.3815 5.92337 22.5 5.625 22.5ZM5.625 18H4.5C4.20163 18 3.91548 17.8815 3.7045 17.6705C3.49353 17.4595 3.375 17.1734 3.375 16.875C3.375 16.5766 3.49353 16.2905 3.7045 16.0795C3.91548 15.8685 4.20163 15.75 4.5 15.75H5.625C5.92337 15.75 6.20952 15.8685 6.4205 16.0795C6.63147 16.2905 6.75 16.5766 6.75 16.875C6.75 17.1734 6.63147 17.4595 6.4205 17.6705C6.20952 17.8815 5.92337 18 5.625 18ZM5.625 13.5H4.5C4.20163 13.5 3.91548 13.3815 3.7045 13.1705C3.49353 12.9595 3.375 12.6734 3.375 12.375C3.375 12.0766 3.49353 11.7905 3.7045 11.5795C3.91548 11.3685 4.20163 11.25 4.5 11.25H5.625C5.92337 11.25 6.20952 11.3685 6.4205 11.5795C6.63147 11.7905 6.75 12.0766 6.75 12.375C6.75 12.6734 6.63147 12.9595 6.4205 13.1705C6.20952 13.3815 5.92337 13.5 5.625 13.5ZM5.98421 7.54537C5.77327 7.33426 5.65482 7.048 5.65494 6.74956C5.65506 6.45112 5.77372 6.16495 5.98483 5.95401C6.19594 5.74306 6.4822 5.62462 6.78064 5.62473C7.07908 5.62485 7.36525 5.74351 7.5762 5.95463L7.88985 6.26884L9.32963 4.82963C9.4334 4.72218 9.55754 4.63647 9.6948 4.57751C9.83205 4.51855 9.97967 4.48752 10.129 4.48622C10.2784 4.48492 10.4266 4.51338 10.5648 4.56995C10.7031 4.62652 10.8287 4.71005 10.9343 4.81568C11.0399 4.92131 11.1235 5.04692 11.18 5.18518C11.2366 5.32344 11.2651 5.47157 11.2638 5.62095C11.2625 5.77033 11.2315 5.91795 11.1725 6.0552C11.1135 6.19246 11.0278 6.3166 10.9204 6.42037L8.685 8.65553C8.58053 8.76004 8.45649 8.84295 8.31997 8.89951C8.18345 8.95608 8.03712 8.98519 7.88934 8.98519C7.74157 8.98519 7.59524 8.95608 7.45872 8.89951C7.3222 8.84295 7.19816 8.76004 7.09369 8.65553L5.98421 7.54537ZM13.5 31.5H9C8.70163 31.5 8.41548 31.3815 8.2045 31.1705C7.99353 30.9595 7.875 30.6734 7.875 30.375C7.875 30.0766 7.99353 29.7905 8.2045 29.5795C8.41548 29.3685 8.70163 29.25 9 29.25H13.5C13.7984 29.25 14.0845 29.3685 14.2955 29.5795C14.5065 29.7905 14.625 30.0766 14.625 30.375C14.625 30.6734 14.5065 30.9595 14.2955 31.1705C14.0845 31.3815 13.7984 31.5 13.5 31.5ZM13.5 27H9C8.70163 27 8.41548 26.8815 8.2045 26.6705C7.99353 26.4595 7.875 26.1734 7.875 25.875C7.875 25.5766 7.99353 25.2905 8.2045 25.0795C8.41548 24.8685 8.70163 24.75 9 24.75H13.5C13.7984 24.75 14.0845 24.8685 14.2955 25.0795C14.5065 25.2905 14.625 25.5766 14.625 25.875C14.625 26.1734 14.5065 26.4595 14.2955 26.6705C14.0845 26.8815 13.7984 27 13.5 27ZM13.5 22.5H9C8.70163 22.5 8.41548 22.3815 8.2045 22.1705C7.99353 21.9595 7.875 21.6734 7.875 21.375C7.875 21.0766 7.99353 20.7905 8.2045 20.5795C8.41548 20.3685 8.70163 20.25 9 20.25H13.5C13.7984 20.25 14.0845 20.3685 14.2955 20.5795C14.5065 20.7905 14.625 21.0766 14.625 21.375C14.625 21.6734 14.5065 21.9595 14.2955 22.1705C14.0845 22.3815 13.7984 22.5 13.5 22.5ZM13.5 18H9C8.70163 18 8.41548 17.8815 8.2045 17.6705C7.99353 17.4595 7.875 17.1734 7.875 16.875C7.875 16.5766 7.99353 16.2905 8.2045 16.0795C8.41548 15.8685 8.70163 15.75 9 15.75H13.5C13.7984 15.75 14.0845 15.8685 14.2955 16.0795C14.5065 16.2905 14.625 16.5766 14.625 16.875C14.625 17.1734 14.5065 17.4595 14.2955 17.6705C14.0845 17.8815 13.7984 18 13.5 18ZM13.5 13.5H9C8.70163 13.5 8.41548 13.3815 8.2045 13.1705C7.99353 12.9595 7.875 12.6734 7.875 12.375C7.875 12.0766 7.99353 11.7905 8.2045 11.5795C8.41548 11.3685 8.70163 11.25 9 11.25H13.5C13.7984 11.25 14.0845 11.3685 14.2955 11.5795C14.5065 11.7905 14.625 12.0766 14.625 12.375C14.625 12.6734 14.5065 12.9595 14.2955 13.1705C14.0845 13.3815 13.7984 13.5 13.5 13.5Z" fill="#E3A82A" style="fill:#E3A82A;fill:color(display-p3 0.8902 0.6588 0.1647);fill-opacity:1;"/>
<path d="M31.5 0H19.125V36H31.5C32.3943 35.9974 33.2512 35.641 33.8836 35.0086C34.516 34.3762 34.8724 33.5193 34.875 32.625V3.375C34.8724 2.4807 34.516 1.62377 33.8836 0.9914C33.2512 0.35903 32.3943 0.00261181 31.5 0ZM23.625 31.5H22.5C22.2016 31.5 21.9155 31.3815 21.7045 31.1705C21.4935 30.9595 21.375 30.6734 21.375 30.375C21.375 30.0766 21.4935 29.7905 21.7045 29.5795C21.9155 29.3685 22.2016 29.25 22.5 29.25H23.625C23.9234 29.25 24.2095 29.3685 24.4205 29.5795C24.6315 29.7905 24.75 30.0766 24.75 30.375C24.75 30.6734 24.6315 30.9595 24.4205 31.1705C24.2095 31.3815 23.9234 31.5 23.625 31.5ZM23.625 27H22.5C22.2016 27 21.9155 26.8815 21.7045 26.6705C21.4935 26.4595 21.375 26.1734 21.375 25.875C21.375 25.5766 21.4935 25.2905 21.7045 25.0795C21.9155 24.8685 22.2016 24.75 22.5 24.75H23.625C23.9234 24.75 24.2095 24.8685 24.4205 25.0795C24.6315 25.2905 24.75 25.5766 24.75 25.875C24.75 26.1734 24.6315 26.4595 24.4205 26.6705C24.2095 26.8815 23.9234 27 23.625 27ZM23.625 22.5H22.5C22.2016 22.5 21.9155 22.3815 21.7045 22.1705C21.4935 21.9595 21.375 21.6734 21.375 21.375C21.375 21.0766 21.4935 20.7905 21.7045 20.5795C21.9155 20.3685 22.2016 20.25 22.5 20.25H23.625C23.9234 20.25 24.2095 20.3685 24.4205 20.5795C24.6315 20.7905 24.75 21.0766 24.75 21.375C24.75 21.6734 24.6315 21.9595 24.4205 22.1705C24.2095 22.3815 23.9234 22.5 23.625 22.5ZM23.625 18H22.5C22.2016 18 21.9155 17.8815 21.7045 17.6705C21.4935 17.4595 21.375 17.1734 21.375 16.875C21.375 16.5766 21.4935 16.2905 21.7045 16.0795C21.9155 15.8685 22.2016 15.75 22.5 15.75H23.625C23.9234 15.75 24.2095 15.8685 24.4205 16.0795C24.6315 16.2905 24.75 16.5766 24.75 16.875C24.75 17.1734 24.6315 17.4595 24.4205 17.6705C24.2095 17.8815 23.9234 18 23.625 18ZM23.625 13.5H22.5C22.2016 13.5 21.9155 13.3815 21.7045 13.1705C21.4935 12.9595 21.375 12.6734 21.375 12.375C21.375 12.0766 21.4935 11.7905 21.7045 11.5795C21.9155 11.3685 22.2016 11.25 22.5 11.25H23.625C23.9234 11.25 24.2095 11.3685 24.4205 11.5795C24.6315 11.7905 24.75 12.0766 24.75 12.375C24.75 12.6734 24.6315 12.9595 24.4205 13.1705C24.2095 13.3815 23.9234 13.5 23.625 13.5ZM25.0945 7.065L25.4166 6.7428L25.0945 6.4206C24.987 6.31684 24.9013 6.19271 24.8423 6.05547C24.7833 5.91822 24.7523 5.7706 24.751 5.62122C24.7496 5.47185 24.7781 5.32371 24.8346 5.18544C24.8912 5.04717 24.9747 4.92155 25.0803 4.81591C25.1859 4.71026 25.3115 4.62671 25.4498 4.57013C25.588 4.51354 25.7362 4.48505 25.8855 4.48633C26.0349 4.48761 26.1825 4.51862 26.3198 4.57756C26.4571 4.6365 26.5812 4.72219 26.685 4.82963L27.0072 5.15171L27.3294 4.82963C27.4332 4.72218 27.5573 4.63647 27.6946 4.57751C27.8318 4.51855 27.9794 4.48752 28.1288 4.48622C28.2782 4.48492 28.4263 4.51338 28.5646 4.56995C28.7029 4.62652 28.8285 4.71005 28.9341 4.81568C29.0397 4.92131 29.1233 5.04692 29.1798 5.18518C29.2364 5.32344 29.2649 5.47157 29.2636 5.62095C29.2623 5.77033 29.2312 5.91795 29.1723 6.0552C29.1133 6.19246 29.0276 6.3166 28.9202 6.42037L28.5981 6.74258L28.9202 7.06477C29.0276 7.16855 29.1133 7.29269 29.1723 7.42994C29.2312 7.5672 29.2623 7.71482 29.2636 7.8642C29.2649 8.01358 29.2364 8.16172 29.1798 8.29997C29.1233 8.43823 29.0397 8.56384 28.9341 8.66947C28.8285 8.7751 28.7029 8.85863 28.5646 8.9152C28.4263 8.97177 28.2782 9.00023 28.1288 8.99893C27.9794 8.99763 27.8318 8.9666 27.6946 8.90764C27.5573 8.84868 27.4332 8.76297 27.3294 8.65553L27.0072 8.33344L26.685 8.65553C26.5812 8.76297 26.4571 8.84868 26.3198 8.90764C26.1826 8.9666 26.035 8.99763 25.8856 8.99893C25.7362 9.00023 25.5881 8.97177 25.4498 8.9152C25.3115 8.85863 25.1859 8.7751 25.0803 8.66947C24.9747 8.56384 24.8911 8.43823 24.8346 8.29997C24.778 8.16172 24.7495 8.01358 24.7508 7.8642C24.7521 7.71482 24.7832 7.5672 24.8421 7.42994C24.9011 7.29269 24.987 7.16878 25.0945 7.065ZM31.5 31.5H27C26.7016 31.5 26.4155 31.3815 26.2045 31.1705C25.9935 30.9595 25.875 30.6734 25.875 30.375C25.875 30.0766 25.9935 29.7905 26.2045 29.5795C26.4155 29.3685 26.7016 29.25 27 29.25H31.5C31.7984 29.25 32.0845 29.3685 32.2955 29.5795C32.5065 29.7905 32.625 30.0766 32.625 30.375C32.625 30.6734 32.5065 30.9595 32.2955 31.1705C32.0845 31.3815 31.7984 31.5 31.5 31.5ZM31.5 27H27C26.7016 27 26.4155 26.8815 26.2045 26.6705C25.9935 26.4595 25.875 26.1734 25.875 25.875C25.875 25.5766 25.9935 25.2905 26.2045 25.0795C26.4155 24.8685 26.7016 24.75 27 24.75H31.5C31.7984 24.75 32.0845 24.8685 32.2955 25.0795C32.5065 25.2905 32.625 25.5766 32.625 25.875C32.625 26.1734 32.5065 26.4595 32.2955 26.6705C32.0845 26.8815 31.7984 27 31.5 27ZM31.5 22.5H27C26.7016 22.5 26.4155 22.3815 26.2045 22.1705C25.9935 21.9595 25.875 21.6734 25.875 21.375C25.875 21.0766 25.9935 20.7905 26.2045 20.5795C26.4155 20.3685 26.7016 20.25 27 20.25H31.5C31.7984 20.25 32.0845 20.3685 32.2955 20.5795C32.5065 20.7905 32.625 21.0766 32.625 21.375C32.625 21.6734 32.5065 21.9595 32.2955 22.1705C32.0845 22.3815 31.7984 22.5 31.5 22.5ZM31.5 18H27C26.7016 18 26.4155 17.8815 26.2045 17.6705C25.9935 17.4595 25.875 17.1734 25.875 16.875C25.875 16.5766 25.9935 16.2905 26.2045 16.0795C26.4155 15.8685 26.7016 15.75 27 15.75H31.5C31.7984 15.75 32.0845 15.8685 32.2955 16.0795C32.5065 16.2905 32.625 16.5766 32.625 16.875C32.625 17.1734 32.5065 17.4595 32.2955 17.6705C32.0845 17.8815 31.7984 18 31.5 18ZM31.5 13.5H27C26.7016 13.5 26.4155 13.3815 26.2045 13.1705C25.9935 12.9595 25.875 12.6734 25.875 12.375C25.875 12.0766 25.9935 11.7905 26.2045 11.5795C26.4155 11.3685 26.7016 11.25 27 11.25H31.5C31.7984 11.25 32.0845 11.3685 32.2955 11.5795C32.5065 11.7905 32.625 12.0766 32.625 12.375C32.625 12.6734 32.5065 12.9595 32.2955 13.1705C32.0845 13.3815 31.7984 13.5 31.5 13.5Z" fill="#E3A82A" style="fill:#E3A82A;fill:color(display-p3 0.8902 0.6588 0.1647);fill-opacity:1;"/>
</svg>
