<svg width="32" height="32" viewBox="0 0 32 32" fill="none" xmlns="http://www.w3.org/2000/svg">
<path d="M18.9346 3.83325C17.2991 3.83325 15.7306 4.48295 14.5741 5.63943C13.4177 6.7959 12.768 8.36442 12.768 9.99992V13.4333H9.46797C9.30264 13.4333 9.16797 13.5666 9.16797 13.7333V18.2666C9.16797 18.4319 9.3013 18.5666 9.46797 18.5666H12.768V27.8666C12.768 28.0319 12.9013 28.1666 13.068 28.1666H17.6013C17.7666 28.1666 17.9013 28.0333 17.9013 27.8666V18.5666H21.2306C21.368 18.5666 21.488 18.4733 21.5213 18.3399L22.6546 13.8066C22.6658 13.7623 22.6667 13.7162 22.6573 13.6715C22.6479 13.6269 22.6285 13.5849 22.6005 13.549C22.5724 13.513 22.5366 13.4838 22.4956 13.4638C22.4546 13.4437 22.4096 13.4333 22.364 13.4333H17.9013V9.99992C17.9013 9.86422 17.928 9.72985 17.98 9.60448C18.0319 9.47911 18.108 9.3652 18.204 9.26924C18.2999 9.17329 18.4138 9.09717 18.5392 9.04524C18.6646 8.99331 18.7989 8.96659 18.9346 8.96659H22.4013C22.5666 8.96659 22.7013 8.83325 22.7013 8.66659V4.13325C22.7013 3.96792 22.568 3.83325 22.4013 3.83325H18.9346Z" fill="white" style="fill:white;fill-opacity:1;"/>
</svg>
