<svg width="36" height="36" viewBox="0 0 36 36" fill="none" xmlns="http://www.w3.org/2000/svg">
<path d="M25.7322 13.5998L22.2785 13.1271C21.3728 13.003 20.5861 12.4594 20.174 11.6726L18.6294 8.72437C18.3845 8.25686 17.6147 8.25672 17.3697 8.72437L15.8252 11.6726C15.4131 12.4594 14.6263 13.003 13.7207 13.1271L10.267 13.5998C9.73471 13.6728 9.48474 14.2265 9.87062 14.5808L12.3697 16.8758C13.0492 17.4997 13.358 18.4045 13.1956 19.2961L12.6056 22.5365C12.5191 23.012 13.1209 23.3874 13.6307 23.1347L16.7198 21.6048C17.521 21.2079 18.4779 21.2079 19.2792 21.6047L22.3683 23.1347C22.8755 23.3857 23.4805 23.015 23.3933 22.5365L22.8033 19.296C22.6411 18.4044 22.9499 17.4997 23.6293 16.8758L26.1284 14.5808C26.5144 14.2265 26.2646 13.6728 25.7322 13.5998Z" fill="#E3A82A" style="fill:#E3A82A;fill:color(display-p3 0.8902 0.6588 0.1647);fill-opacity:1;"/>
<path d="M31.6185 0H4.37891C3.40965 0 2.62109 0.788555 2.62109 1.75781V33.5381C2.62109 34.3705 3.03678 35.1399 3.73295 35.5963C4.14111 35.8638 4.60932 36 5.08084 35.9999C5.41355 35.9999 5.74796 35.9321 6.0638 35.7947L17.8585 30.6634C17.9477 30.6245 18.0498 30.6245 18.1389 30.6634L29.9336 35.7947C30.6971 36.1268 31.5684 36.0526 32.2645 35.5963C32.9607 35.1399 33.3763 34.3705 33.3763 33.5381V1.75781C33.3763 0.788555 32.5878 0 31.6185 0ZM27.5545 16.1346L25.0554 18.4295C24.9104 18.5627 24.8458 18.7408 24.8781 18.9182L25.4681 22.1587C25.8656 24.3427 23.4995 26.0495 21.4315 25.0249L18.3425 23.495C18.1306 23.3901 17.8672 23.3901 17.6553 23.495L14.5661 25.0249C12.4955 26.0506 10.1329 24.3374 10.5295 22.1587L11.1195 18.9182C11.1518 18.7408 11.0871 18.5626 10.9421 18.4295L8.44297 16.1345C6.75526 14.5849 7.65835 11.8278 9.98 11.5099L13.4337 11.0372C13.6644 11.0056 13.8596 10.8771 13.9557 10.6938L15.5003 7.74548C16.5342 5.77188 19.4632 5.77188 20.4971 7.74548L22.0417 10.6938C22.1377 10.8771 22.333 11.0056 22.5638 11.0372L26.0174 11.5099C28.3378 11.8275 29.2434 14.5837 27.5545 16.1346Z" fill="#E3A82A" style="fill:#E3A82A;fill:color(display-p3 0.8902 0.6588 0.1647);fill-opacity:1;"/>
</svg>
