<svg xmlns="http://www.w3.org/2000/svg" width="46" height="46" viewBox="0 0 46 46" fill="none">
  <path d="M41.9315 18.7665C41.3395 18.5559 40.7983 18.2234 40.3429 17.7905C39.8874 17.3576 39.5278 16.834 39.2874 16.2535C39.0469 15.673 38.9309 15.0485 38.9468 14.4204C38.9628 13.7922 39.1103 13.1744 39.3799 12.6068C39.7884 11.769 39.9252 10.8245 39.7712 9.90519C39.6173 8.98586 39.1803 8.13748 38.5212 7.47837C37.8621 6.81925 37.0137 6.38226 36.0944 6.22833C35.1751 6.07439 34.2306 6.2112 33.3927 6.61966C32.8252 6.88927 32.2074 7.03681 31.5792 7.05275C30.9511 7.06869 30.3266 6.95268 29.7461 6.71222C29.1656 6.47175 28.642 6.11217 28.2091 5.65672C27.7762 5.20127 27.4437 4.66007 27.233 4.0681C26.9226 3.19353 26.349 2.43656 25.5909 1.90124C24.8329 1.36591 23.9276 1.07849 22.9996 1.07849C22.0716 1.07849 21.1663 1.36591 20.4083 1.90124C19.6502 2.43656 19.0766 3.19353 18.7662 4.0681C18.5555 4.66007 18.223 5.20127 17.7901 5.65672C17.3573 6.11217 16.8336 6.47175 16.2531 6.71222C15.6726 6.95268 15.0481 7.06869 14.42 7.05275C13.7919 7.03681 13.174 6.88927 12.6065 6.61966C11.7686 6.2112 10.8242 6.07439 9.90483 6.22833C8.98549 6.38226 8.13712 6.81925 7.478 7.47837C6.81889 8.13748 6.38189 8.98586 6.22796 9.90519C6.07403 10.8245 6.21083 11.769 6.61929 12.6068C6.8889 13.1744 7.03644 13.7922 7.05238 14.4204C7.06833 15.0485 6.95232 15.673 6.71185 16.2535C6.47138 16.834 6.11181 17.3576 5.65636 17.7905C5.2009 18.2234 4.65971 18.5559 4.06773 18.7665C3.19316 19.0769 2.4362 19.6506 1.90087 20.4087C1.36554 21.1667 1.07813 22.072 1.07812 23C1.07812 23.928 1.36554 24.8332 1.90087 25.5913C2.4362 26.3493 3.19316 26.923 4.06773 27.2334C4.65971 27.4441 5.2009 27.7766 5.65636 28.2095C6.11181 28.6423 6.47138 29.1659 6.71185 29.7464C6.95232 30.3269 7.06833 30.9514 7.05238 31.5796C7.03644 32.2077 6.8889 32.8255 6.61929 33.3931C6.21083 34.231 6.07403 35.1754 6.22796 36.0947C6.38189 37.0141 6.81889 37.8625 7.478 38.5216C8.13712 39.1807 8.98549 39.6177 9.90483 39.7716C10.8242 39.9255 11.7686 39.7887 12.6065 39.3803C13.174 39.1107 13.7919 38.9631 14.42 38.9472C15.0481 38.9312 15.6726 39.0473 16.2531 39.2877C16.8336 39.5282 17.3573 39.8878 17.7901 40.3432C18.223 40.7987 18.5555 41.3399 18.7662 41.9318C19.0766 42.8064 19.6502 43.5634 20.4083 44.0987C21.1663 44.634 22.0716 44.9215 22.9996 44.9215C23.9276 44.9215 24.8329 44.634 25.5909 44.0987C26.349 43.5634 26.9226 42.8064 27.233 41.9318C27.4437 41.3399 27.7762 40.7987 28.2091 40.3432C28.642 39.8878 29.1656 39.5282 29.7461 39.2877C30.3266 39.0473 30.9511 38.9312 31.5792 38.9472C32.2074 38.9631 32.8252 39.1107 33.3927 39.3803C34.2306 39.7887 35.1751 39.9255 36.0944 39.7716C37.0137 39.6177 37.8621 39.1807 38.5212 38.5216C39.1803 37.8625 39.6173 37.0141 39.7712 36.0947C39.9252 35.1754 39.7884 34.231 39.3799 33.3931C39.1103 32.8255 38.9628 32.2077 38.9468 31.5796C38.9309 30.9514 39.0469 30.3269 39.2874 29.7464C39.5278 29.1659 39.8874 28.6423 40.3429 28.2095C40.7983 27.7766 41.3395 27.4441 41.9315 27.2334C42.806 26.923 43.563 26.3493 44.0983 25.5913C44.6337 24.8332 44.9211 23.928 44.9211 23C44.9211 22.072 44.6337 21.1667 44.0983 20.4087C43.563 19.6506 42.806 19.0769 41.9315 18.7665ZM11.2337 20.7862L10.1771 24.7322L8.07835 24.1715L10.673 14.4828L16.344 15.9993L15.8121 17.9184L12.2184 16.9625L11.7009 18.8815L14.9999 19.7656L14.4896 21.6703L11.2337 20.7862ZM21.7921 24.6387C21.7311 25.4498 21.7311 26.2642 21.7921 27.0753L21.9862 27.9018L19.7437 27.3125L19.6646 27.0322C19.5592 26.241 19.5447 25.4404 19.6215 24.6459C19.679 23.4959 19.3843 23.2084 18.6943 22.9928L18.1337 22.8418L17.1274 26.5937L15.0287 26.0331L17.5659 16.5312H17.9755C18.7559 16.5983 19.5283 16.7379 20.2827 16.9481C21.3305 17.1258 22.2698 17.6997 22.9062 18.5509C23.1223 18.8872 23.2621 19.2668 23.3155 19.663C23.3689 20.0591 23.3346 20.4622 23.2152 20.8437C23.098 21.294 22.8733 21.7091 22.5603 22.0534C22.2473 22.3976 21.8554 22.6608 21.4184 22.8203C21.711 23.3794 21.8406 24.0095 21.7921 24.6387ZM29.0227 27.7222L28.5052 29.6412L22.6259 28.0672L25.2277 18.3784L30.9059 19.9022L30.3884 21.8212L26.7946 20.8653L26.3202 22.6406L29.7055 23.5462L29.1952 25.4509L25.8099 24.5453L25.2277 26.7015L29.0227 27.7222ZM37.3746 23.7187L33.7809 22.7628L33.3065 24.5381L36.6918 25.4437L36.2246 27.3125L32.8393 26.4068L32.2571 28.5631L36.0305 29.5765L35.513 31.4956L29.6337 29.9215L32.2284 20.2328L37.9137 21.7565L37.3746 23.7187Z" fill="white" style="fill:white;fill-opacity:1;"/>
  <path d="M19.8691 18.8456C19.6175 18.7809 19.4091 18.7378 19.2438 18.709L18.6328 20.9875L19.2941 21.1672C20.2213 21.4115 20.8897 21.124 21.0838 20.3981C21.1556 20.125 21.3856 19.2697 19.8691 18.8456Z" fill="white" style="fill:white;fill-opacity:1;"/>
</svg>