<svg xmlns="http://www.w3.org/2000/svg" width="46" height="46" viewBox="0 0 46 46" fill="none">
  <path d="M23 24.4375C21.0098 24.4375 19.0643 25.0277 17.4096 26.1333C15.7548 27.239 14.4651 28.8106 13.7035 30.6492C12.9419 32.4879 12.7426 34.5112 13.1309 36.4631C13.5191 38.415 14.4775 40.208 15.8847 41.6153C17.292 43.0225 19.085 43.9809 21.0369 44.3692C22.9888 44.7574 25.0121 44.5581 26.8508 43.7965C28.6894 43.0349 30.261 41.7452 31.3667 40.0904C32.4723 38.4357 33.0625 36.4902 33.0625 34.5C33.0625 31.8313 32.0023 29.2718 30.1153 27.3847C28.2282 25.4977 25.6687 24.4375 23 24.4375ZM23 37.375C22.8657 37.5082 22.7064 37.6136 22.5312 37.6852C22.3561 37.7567 22.1686 37.793 21.9794 37.7919C21.6023 37.7903 21.2409 37.6406 20.9731 37.375L18.0981 34.5L20.125 32.5019L22.0225 34.385L25.875 30.5469L27.9019 32.5881L23 37.375Z" fill="white" style="fill:white;fill-opacity:1;"/>
  <path d="M41.6875 1.4375H4.3125C3.55 1.4375 2.81874 1.7404 2.27957 2.27957C1.7404 2.81874 1.4375 3.55 1.4375 4.3125V30.1875C1.4375 30.95 1.7404 31.6813 2.27957 32.2204C2.81874 32.7596 3.55 33.0625 4.3125 33.0625H10.1488C10.5145 29.9107 12.0258 27.0032 14.3952 24.8928C16.7647 22.7824 19.827 21.6164 23 21.6164C26.173 21.6164 29.2353 22.7824 31.6048 24.8928C33.9742 27.0032 35.4855 29.9107 35.8512 33.0625H41.6875C42.45 33.0625 43.1813 32.7596 43.7204 32.2204C44.2596 31.6813 44.5625 30.95 44.5625 30.1875V4.3125C44.5625 3.55 44.2596 2.81874 43.7204 2.27957C43.1813 1.7404 42.45 1.4375 41.6875 1.4375ZM5.75 5.75H15.8125V8.625H5.75V5.75ZM5.75 11.5H12.9375V14.375H5.75V11.5ZM40.25 25.875H34.5V23H40.25V25.875ZM38.8125 15.8125H35.9375V12.0894L27.945 20.125C27.8109 20.2641 27.6501 20.3748 27.4723 20.4504C27.2945 20.526 27.1032 20.5649 26.91 20.5649C26.7168 20.5649 26.5255 20.526 26.3477 20.4504C26.1699 20.3748 26.0091 20.2641 25.875 20.125L21.6919 15.8125L8.53875 27.9019L6.59813 25.7888L20.7575 12.8512C21.0248 12.5964 21.38 12.4542 21.7494 12.4542C22.1187 12.4542 22.4739 12.5964 22.7412 12.8512L26.9244 17.0344L33.9106 10.0625H30.1875V7.1875H37.375C37.7562 7.1875 38.1219 7.33895 38.3915 7.60853C38.661 7.87812 38.8125 8.24375 38.8125 8.625V15.8125Z" fill="white" style="fill:white;fill-opacity:1;"/>
</svg>