<svg width="32" height="30" viewBox="0 0 32 30" fill="none" xmlns="http://www.w3.org/2000/svg">
<path fill-rule="evenodd" clip-rule="evenodd" d="M4.8 0C2.14903 0 0 2.5184 0 5.625V24.375C0 27.4816 2.14903 30 4.8 30H27.2C29.851 30 32 27.4816 32 24.375V5.625C32 2.5184 29.851 0 27.2 0H4.8ZM4.52082 3.77844C4.61148 3.75975 4.70477 3.75 4.8 3.75H27.2C27.2952 3.75 27.3885 3.75975 27.4792 3.77845L16 12.7466L4.52082 3.77844ZM3.2 7.25349V24.375C3.2 25.4105 3.91634 26.25 4.8 26.25H27.2C28.0837 26.25 28.8 25.4105 28.8 24.375V7.25352L16.8875 16.5601C16.3501 16.98 15.6499 16.98 15.1125 16.5601L3.2 7.25349Z" fill="white" style="fill:white;fill-opacity:1;"/>
</svg>
