<svg width="32" height="32" viewBox="0 0 32 32" fill="none" xmlns="http://www.w3.org/2000/svg">
<path d="M16 6.66663C15.6464 6.66663 15.3072 6.8071 15.0572 7.05715C14.8071 7.3072 14.6667 7.64634 14.6667 7.99996C14.6667 8.35358 14.8071 8.69272 15.0572 8.94277C15.3072 9.19282 15.6464 9.33329 16 9.33329H26.6667C27.0203 9.33329 27.3594 9.19282 27.6095 8.94277C27.8595 8.69272 28 8.35358 28 7.99996C28 7.64634 27.8595 7.3072 27.6095 7.05715C27.3594 6.8071 27.0203 6.66663 26.6667 6.66663H16ZM9.33333 16C9.33333 15.6463 9.47381 15.3072 9.72386 15.0571C9.97391 14.8071 10.313 14.6666 10.6667 14.6666H21.3333C21.687 14.6666 22.0261 14.8071 22.2761 15.0571C22.5262 15.3072 22.6667 15.6463 22.6667 16C22.6667 16.3536 22.5262 16.6927 22.2761 16.9428C22.0261 17.1928 21.687 17.3333 21.3333 17.3333H10.6667C10.313 17.3333 9.97391 17.1928 9.72386 16.9428C9.47381 16.6927 9.33333 16.3536 9.33333 16ZM4 24C4 23.6463 4.14048 23.3072 4.39052 23.0571C4.64057 22.8071 4.97971 22.6666 5.33333 22.6666H16C16.3536 22.6666 16.6928 22.8071 16.9428 23.0571C17.1929 23.3072 17.3333 23.6463 17.3333 24C17.3333 24.3536 17.1929 24.6927 16.9428 24.9428C16.6928 25.1928 16.3536 25.3333 16 25.3333H5.33333C4.97971 25.3333 4.64057 25.1928 4.39052 24.9428C4.14048 24.6927 4 24.3536 4 24Z" fill="#305487" style="fill:#305487;fill:color(display-p3 0.1882 0.3294 0.5294);fill-opacity:1;"/>
</svg>
