<svg width="36" height="36" viewBox="0 0 36 36" fill="none" xmlns="http://www.w3.org/2000/svg">
<path d="M26.7306 2.25H12.1056V8.02125C12.1056 10.0069 10.4856 11.6213 8.49437 11.6213H2.73438V29.5763C2.73438 31.8825 4.60187 33.75 6.90812 33.75H19.5767C19.2876 33.2122 19.1087 32.6081 19.1087 31.9568V26.739C19.1087 25.4756 19.732 24.2966 20.7749 23.5845L25.0476 20.6719C25.6844 20.2376 26.428 20.0092 27.1986 20.0092C27.9692 20.0092 28.7118 20.2388 29.3485 20.6719L30.9044 21.7327V6.42375C30.9044 4.1175 29.0369 2.25 26.7306 2.25ZM15.6978 26.2237H9.499C8.93987 26.2237 8.4865 25.7704 8.4865 25.2113C8.4865 24.6521 8.93987 24.1987 9.499 24.1987H15.6978C16.2569 24.1987 16.7102 24.6521 16.7102 25.2113C16.7102 25.7704 16.2569 26.2237 15.6978 26.2237ZM23.0327 19.0125H9.49112C8.932 19.0125 8.47862 18.5591 8.47862 18C8.47862 17.4409 8.932 16.9875 9.49112 16.9875H23.0327C23.5919 16.9875 24.0452 17.4409 24.0452 18C24.0452 18.5591 23.5919 19.0125 23.0327 19.0125Z" fill="#E3A82A" style="fill:#E3A82A;fill:color(display-p3 0.8902 0.6588 0.1647);fill-opacity:1;"/>
<path d="M8.49437 9.59625C9.3685 9.59625 10.0806 8.88975 10.0806 8.02125V2.25H10.0131C8.94437 2.25 7.92062 2.6775 7.16687 3.43125L3.91562 6.6825C3.16187 7.43625 2.73438 8.46 2.73438 9.52875V9.59625H8.49437Z" fill="#E3A82A" style="fill:#E3A82A;fill:color(display-p3 0.8902 0.6588 0.1647);fill-opacity:1;"/>
<path d="M26.1874 22.3447L21.9158 25.2574C21.4253 25.5915 21.1328 26.1461 21.1328 26.739V31.9567C21.1328 32.9467 21.9361 33.75 22.9261 33.75H31.4693C32.4593 33.75 33.2626 32.9467 33.2626 31.9567V26.739C33.2626 26.1461 32.9689 25.5915 32.4796 25.2574L28.2079 22.3447C27.5982 21.9296 26.7961 21.9296 26.1874 22.3447Z" fill="#E3A82A" style="fill:#E3A82A;fill:color(display-p3 0.8902 0.6588 0.1647);fill-opacity:1;"/>
</svg>
