<svg width="20" height="20" viewBox="0 0 20 20" fill="none" xmlns="http://www.w3.org/2000/svg">
<g opacity="0.5">
<path fill-rule="evenodd" clip-rule="evenodd" d="M18.3307 18.8336C18.6069 18.8336 18.8307 18.6098 18.8307 18.3336V12.5003C18.8307 12.2242 18.6069 12.0003 18.3307 12.0003C18.0546 12.0003 17.8307 12.2242 17.8307 12.5003V17.8336H9.99735C9.72127 17.8336 9.49735 18.0575 9.49735 18.3336C9.49735 18.6098 9.72127 18.8336 9.99735 18.8336H18.3307ZM1.16406 10.0003C1.16406 10.2765 1.38792 10.5003 1.66406 10.5003C1.9402 10.5003 2.16406 10.2765 2.16406 10.0003V2.16699H7.4974C7.77354 2.16699 7.9974 1.94313 7.9974 1.66699C7.9974 1.39085 7.77354 1.16699 7.4974 1.16699H1.66406C1.38792 1.16699 1.16406 1.39085 1.16406 1.66699V10.0003ZM1.202 18.525C1.2264 18.584 1.26257 18.6393 1.3105 18.6872C1.35845 18.7351 1.4137 18.7713 1.47267 18.7957C1.53162 18.8202 1.59626 18.8336 1.66406 18.8336H6.66406C6.9402 18.8336 7.16406 18.6098 7.16406 18.3336C7.16406 18.0575 6.9402 17.8336 6.66406 17.8336H2.87117L8.68427 12.0205C8.87952 11.8253 8.87952 11.5087 8.68427 11.3134C8.48902 11.1182 8.17244 11.1182 7.97717 11.3134L2.16406 17.1265V13.3336C2.16406 13.0575 1.9402 12.8336 1.66406 12.8336C1.38792 12.8336 1.16406 13.0575 1.16406 13.3336V18.3329L1.1641 18.3399C1.16488 18.403 1.17751 18.4659 1.202 18.525ZM18.8307 9.16695C18.8307 9.44312 18.6069 9.66695 18.3307 9.66695H10.8307C10.5546 9.66695 10.3307 9.44312 10.3307 9.16695V1.66699C10.3307 1.39085 10.5546 1.16699 10.8307 1.16699H18.3307C18.6069 1.16699 18.8307 1.39085 18.8307 1.66699V9.16695Z" fill="#0F0F0F" style="fill:#0F0F0F;fill:color(display-p3 0.0596 0.0596 0.0596);fill-opacity:1;"/>
<path d="M13.4 5.216H12.48V9H11.752V5.216H11.184V4.616H11.752V4.304C11.752 3.81333 11.8773 3.456 12.128 3.232C12.384 3.00267 12.792 2.888 13.352 2.888V3.496C13.032 3.496 12.8053 3.56 12.672 3.688C12.544 3.81067 12.48 4.016 12.48 4.304V4.616H13.4V5.216ZM15.1368 5.216V7.8C15.1368 8.01333 15.1821 8.16533 15.2728 8.256C15.3635 8.34133 15.5208 8.384 15.7448 8.384H16.2808V9H15.6248C15.2195 9 14.9155 8.90667 14.7128 8.72C14.5101 8.53333 14.4088 8.22667 14.4088 7.8V5.216H13.8408V4.616H14.4088V3.512H15.1368V4.616H16.2808V5.216H15.1368Z" fill="white" style="fill:white;fill-opacity:1;"/>
<path d="M16.204 5.708C16.5427 5.436 16.808 5.21333 17 5.04C17.192 4.864 17.3533 4.68133 17.484 4.492C17.6173 4.3 17.684 4.112 17.684 3.928C17.684 3.75467 17.6413 3.61867 17.556 3.52C17.4733 3.41867 17.3387 3.368 17.152 3.368C16.9707 3.368 16.8293 3.42533 16.728 3.54C16.6293 3.652 16.576 3.80267 16.568 3.992H16.216C16.2267 3.69333 16.3173 3.46267 16.488 3.3C16.6587 3.13733 16.8787 3.056 17.148 3.056C17.4227 3.056 17.64 3.132 17.8 3.284C17.9627 3.436 18.044 3.64533 18.044 3.912C18.044 4.13333 17.9773 4.34933 17.844 4.56C17.7133 4.768 17.564 4.952 17.396 5.112C17.228 5.26933 17.0133 5.45333 16.752 5.664H18.128V5.968H16.204V5.708Z" fill="white" style="fill:white;fill-opacity:1;"/>
</g>
</svg>
