<svg width="32" height="32" viewBox="0 0 32 32" fill="none" xmlns="http://www.w3.org/2000/svg">
<path d="M14.6641 2.66668C15.0161 2.66668 15.3641 2.68268 15.7081 2.71468C15.2467 3.52731 14.9312 4.4145 14.7761 5.33601L14.6641 5.33334C9.50806 5.33334 5.33073 9.50934 5.33073 14.6667C5.33073 19.824 9.50806 24 14.6641 24C17.0914 24.0031 19.4239 23.0576 21.1641 21.3653L21.3641 21.1653C23.0555 19.4253 24.0004 17.0934 23.9974 14.6667L23.9934 14.5533C24.915 14.3977 25.8022 14.0819 26.6147 13.62C26.8895 16.6907 25.9665 19.7487 24.0387 22.1547L29.7494 27.8653L27.8627 29.7507L22.1534 24.0413C20.029 25.7443 17.3867 26.6706 14.6641 26.6667C8.04006 26.6667 2.66406 21.2907 2.66406 14.6667C2.66406 8.04268 8.04006 2.66668 14.6641 2.66668ZM22.0374 1.75868C22.0879 1.63385 22.1745 1.52694 22.2862 1.45167C22.3978 1.3764 22.5294 1.33618 22.6641 1.33618C22.7987 1.33618 22.9303 1.3764 23.042 1.45167C23.1536 1.52694 23.2402 1.63385 23.2907 1.75868L23.6294 2.57334C24.1957 3.95294 25.2694 5.06291 26.6294 5.67468L27.5867 6.10134C27.7095 6.15782 27.8135 6.24832 27.8864 6.3621C27.9593 6.47589 27.9981 6.6082 27.9981 6.74334C27.9981 6.87848 27.9593 7.01079 27.8864 7.12458C27.8135 7.23837 27.7095 7.32887 27.5867 7.38534L26.5734 7.83601C25.2472 8.43111 24.1921 9.50145 23.6161 10.836L23.2867 11.5907C23.2355 11.7136 23.149 11.8185 23.0382 11.8924C22.9274 11.9662 22.7972 12.0056 22.6641 12.0056C22.5309 12.0056 22.4007 11.9662 22.2899 11.8924C22.1791 11.8185 22.0927 11.7136 22.0414 11.5907L21.7134 10.8373C21.137 9.50181 20.0808 8.43089 18.7534 7.83601L17.7401 7.38534C17.6173 7.32887 17.5133 7.23837 17.4404 7.12458C17.3675 7.01079 17.3287 6.87848 17.3287 6.74334C17.3287 6.6082 17.3675 6.47589 17.4404 6.3621C17.5133 6.24832 17.6173 6.15782 17.7401 6.10134L18.6974 5.67468C20.0579 5.06318 21.1321 3.95318 21.6987 2.57334L22.0374 1.75868Z" fill="white" style="fill:white;fill-opacity:1;"/>
</svg>
