<svg width="32" height="32" viewBox="0 0 32 32" fill="none" xmlns="http://www.w3.org/2000/svg">
<path fill-rule="evenodd" clip-rule="evenodd" d="M0.387555 1.94133C-1.05964e-07 2.70222 0 3.69778 0 5.68889V6.78044L31.9822 3.872C31.9484 3.00444 31.8578 2.42489 31.6124 1.94133C31.2716 1.27234 30.7277 0.728433 30.0587 0.387555C29.2978 -1.05964e-07 28.3022 0 26.3111 0H5.68889C3.69778 0 2.70222 -1.05964e-07 1.94133 0.387555C1.27234 0.728433 0.728433 1.27234 0.387555 1.94133ZM32 7.44178L23.3511 8.22756L27.8062 31.9911C28.8587 31.968 29.5182 31.888 30.0587 31.6124C30.7277 31.2716 31.2716 30.7277 31.6124 30.0587C32 29.2978 32 28.3022 32 26.3111V7.44178ZM24.192 32L19.7938 8.55111L0 10.3502V26.3111C0 28.3022 -1.05964e-07 29.2978 0.387555 30.0587C0.728433 30.7277 1.27234 31.2716 1.94133 31.6124C2.70222 32 3.69778 32 5.68889 32H24.192ZM16.8889 21.3867C16.8889 25.2231 13.0844 27.9182 11.4258 28.912C11.1965 29.0496 10.9341 29.1222 10.6667 29.1222C10.3993 29.1222 10.1369 29.0496 9.90756 28.912C8.24889 27.9182 4.44444 25.2231 4.44444 21.3849C4.44444 17.6213 7.45956 15.1111 10.6667 15.1111C13.9858 15.1111 16.8889 17.6213 16.8889 21.3867Z" fill="#E3A82A" style="fill:#E3A82A;fill:color(display-p3 0.8902 0.6588 0.1647);fill-opacity:1;"/>
<path d="M10.6667 23.1111C11.6485 23.1111 12.4444 22.3152 12.4444 21.3333C12.4444 20.3515 11.6485 19.5556 10.6667 19.5556C9.68483 19.5556 8.88889 20.3515 8.88889 21.3333C8.88889 22.3152 9.68483 23.1111 10.6667 23.1111Z" fill="#E3A82A" style="fill:#E3A82A;fill:color(display-p3 0.8902 0.6588 0.1647);fill-opacity:1;"/>
</svg>
